<svg version="1.1" xmlns="http://www.w3.org/2000/svg" width="32px" height="32px" viewBox="0 0 32 32">
<path d="M27.9,17.56c0.06-0.5,0.1-1.02,0.1-1.56s-0.04-1.06-0.12-1.56l3.38-2.641c0.299-0.24,0.381-0.68,0.201-1.02L28.26,5.24
	c-0.2-0.36-0.62-0.48-0.979-0.36l-3.98,1.6c-0.84-0.64-1.72-1.159-2.7-1.56L20,0.68C19.94,0.28,19.6,0,19.2,0h-6.4
	c-0.399,0-0.72,0.28-0.779,0.68L11.42,4.92c-0.979,0.4-1.88,0.94-2.7,1.56L4.74,4.88c-0.36-0.14-0.78,0-0.98,0.36l-3.2,5.54
	C0.36,11.14,0.44,11.56,0.76,11.8l3.38,2.641C4.06,14.94,4,15.479,4,16s0.04,1.06,0.12,1.56L0.74,20.2c-0.3,0.24-0.38,0.68-0.2,1.02
	l3.2,5.54c0.2,0.36,0.62,0.48,0.979,0.36l3.98-1.6c0.84,0.64,1.72,1.159,2.7,1.56l0.6,4.24c0.08,0.398,0.4,0.68,0.8,0.68h6.4
	c0.399,0,0.74-0.281,0.779-0.68l0.601-4.24c0.979-0.4,1.88-0.94,2.7-1.56l3.979,1.6c0.36,0.14,0.78,0,0.98-0.36l3.201-5.54
	c0.199-0.359,0.117-0.779-0.201-1.02L27.9,17.56z M16,22c-3.3,0-6-2.7-6-6s2.7-6,6-6s6,2.7,6,6S19.3,22,16,22z"/>
</svg>