<svg version="1.1" xmlns="http://www.w3.org/2000/svg" xmlns:xlink="http://www.w3.org/1999/xlink" width="32px" height="32px" viewBox="0 0 32 32">
	<g>
		<path d="M13.062,27.102c-0.041-0.108-0.056-0.201-0.041-0.275c0.014-0.075-0.034-0.137-0.144-0.184
			c-0.108-0.048-0.163-0.085-0.163-0.112s-0.078-0.048-0.234-0.062c-0.157-0.014-0.235-0.021-0.235-0.021h-0.265h-0.225H5.878
			c-0.898,0-1.667-0.319-2.307-0.959s-0.959-1.408-0.959-2.306V8.816c0-0.898,0.319-1.667,0.959-2.307s1.408-0.959,2.307-0.959h6.53
			c0.177,0,0.315-0.044,0.418-0.133c0.102-0.088,0.17-0.221,0.204-0.397s0.055-0.337,0.062-0.479
			C13.099,4.397,13.095,4.218,13.081,4s-0.021-0.354-0.021-0.408c0-0.177-0.064-0.33-0.193-0.459s-0.282-0.194-0.459-0.194h-6.53
			c-1.619,0-3.004,0.575-4.153,1.725S0,7.197,0,8.816v14.367c0,1.619,0.575,3.003,1.725,4.152c1.149,1.15,2.534,1.726,4.153,1.726
			h6.53c0.177,0,0.316-0.045,0.418-0.133c0.103-0.089,0.17-0.222,0.204-0.398s0.055-0.337,0.062-0.479s0.004-0.323-0.01-0.54
			C13.068,27.292,13.062,27.156,13.062,27.102z"/>
		<path d="M31.612,15.081L20.511,3.979c-0.259-0.259-0.565-0.388-0.919-0.388s-0.66,0.129-0.919,0.388
			c-0.258,0.259-0.388,0.564-0.388,0.918v5.878H9.143c-0.354,0-0.66,0.13-0.918,0.388c-0.259,0.259-0.388,0.564-0.388,0.919v7.836
			c0,0.354,0.129,0.66,0.388,0.919c0.259,0.258,0.564,0.388,0.918,0.388h9.144v5.878c0,0.354,0.129,0.659,0.388,0.918
			c0.258,0.259,0.564,0.388,0.918,0.388s0.66-0.129,0.919-0.388l11.102-11.102C31.871,16.66,32,16.354,32,16
			C32,15.646,31.871,15.34,31.612,15.081z"/>
	</g>
</svg>
