<svg xmlns="http://www.w3.org/2000/svg" viewBox="0 0 16 16">
	<path class="svg-fill" fill-rule="evenodd" clip-rule="evenodd" d="M4.27397 8.48938C3.15997 8.48938 2.09197 8.92938 1.30397 9.71938C0.516975 10.5094 0.0739746 11.5694 0.0739746 12.6894C0.0739746 13.2494 0.295975 13.7894 0.691975 14.1794C1.08797 14.5794 1.62397 14.7994 2.18397 14.7994C4.15297 14.7994 7.85297 14.7994 9.82197 14.7994C10.381 14.7994 10.918 14.5794 11.314 14.1794C11.709 13.7894 11.932 13.2494 11.932 12.6894C11.932 11.5694 11.489 10.5094 10.702 9.71938C9.91397 8.92938 8.84597 8.48938 7.73197 8.48938H4.27397ZM4.27397 10.0894H7.73197C8.42097 10.0894 9.08297 10.3594 9.56997 10.8494C10.058 11.3394 10.332 11.9994 10.332 12.6894C10.332 12.8294 10.278 12.9494 10.182 13.0494C10.087 13.1494 9.95697 13.1994 9.82197 13.1994H2.18397C2.04897 13.1994 1.91897 13.1494 1.82297 13.0494C1.72797 12.9494 1.67397 12.8294 1.67397 12.6894C1.67397 11.9994 1.94797 11.3394 2.43597 10.8494C2.92297 10.3594 3.58397 10.0894 4.27397 10.0894ZM12.219 5.25938H10.802C10.371 5.25938 10.021 5.58938 10.021 5.99937C10.021 6.40938 10.371 6.73938 10.802 6.73938H12.219V8.07937C12.219 8.47937 12.569 8.80937 13 8.80937C13.431 8.80937 13.781 8.47937 13.781 8.07937V6.73938H15.198C15.629 6.73938 15.979 6.40938 15.979 5.99937C15.979 5.58938 15.629 5.25938 15.198 5.25938H13.781V3.91937C13.781 3.51938 13.431 3.18938 13 3.18938C12.569 3.18938 12.219 3.51938 12.219 3.91937V5.25938ZM5.99497 1.60938C4.40197 1.60938 3.10897 2.89938 3.10897 4.49938C3.10897 6.08938 4.40197 7.38938 5.99497 7.38938C7.58697 7.38938 8.88097 6.08938 8.88097 4.49938C8.88097 2.89938 7.58697 1.60938 5.99497 1.60938ZM5.99498 3.20938C6.70497 3.20938 7.28097 3.78938 7.28097 4.49937C7.28097 5.20937 6.70497 5.78937 5.99498 5.78937C5.28397 5.78937 4.70897 5.20937 4.70897 4.49937C4.70897 3.78938 5.28397 3.20938 5.99498 3.20938Z" />
</svg>