<svg xmlns="http://www.w3.org/2000/svg" width="16" height="16" viewBox="0 0 16 16">
  <path class="svg-fill" fill-rule="evenodd" d="M3.881 2.279a.9.9 0 01-.05 1.272 6.082 6.082 0 00-1.963 4.48c0 1.718.711 3.27 1.857 4.381a.9.9 0 11-1.252 1.293A7.88 7.88 0 01.068 8.03c0-2.293.98-4.36 2.541-5.802a.9.9 0 011.272.05z" clip-rule="evenodd"/>
  <path class="svg-fill" fill-rule="evenodd" d="M5.602 4.622a.9.9 0 01.05 1.272 3.138 3.138 0 00-.836 2.137c0 .781.283 1.494.754 2.046a.9.9 0 11-1.369 1.169A4.936 4.936 0 013.016 8.03c0-1.295.5-2.477 1.314-3.359a.9.9 0 011.272-.05zM7.968 6.19a1.843 1.843 0 11-.002 3.685 1.843 1.843 0 01.002-3.686zM12.055 2.279a.9.9 0 011.272-.05 7.882 7.882 0 012.541 5.802 7.879 7.879 0 01-2.404 5.674.9.9 0 11-1.253-1.293 6.08 6.08 0 001.857-4.38c0-1.77-.754-3.365-1.962-4.481a.9.9 0 01-.05-1.272z" clip-rule="evenodd"/>
  <path class="svg-fill" fill-rule="evenodd" d="M10.334 4.622a.9.9 0 011.272.05 4.937 4.937 0 011.315 3.36c0 1.225-.448 2.35-1.186 3.214a.9.9 0 11-1.369-1.17 3.136 3.136 0 00.755-2.045c0-.824-.317-1.574-.837-2.137a.9.9 0 01.05-1.272z" clip-rule="evenodd"/>
</svg>