<svg xmlns="http://www.w3.org/2000/svg" viewBox="0 0 16 16">
	<path class="svg-fill" fill-rule="evenodd" clip-rule="evenodd" d="M0.315081 8.52094C0.294081 8.83094 0.264081 9.38094 0.239081 9.88094C0.213081 10.3709 0.390081 10.8509 0.729081 11.2109C1.06908 11.5709 1.54108 11.7809 2.03508 11.7809C2.63708 11.7809 3.38808 11.7809 3.97308 11.7809C4.93608 11.7809 5.72908 11.0209 5.77308 10.0609L5.80208 9.48094C5.80608 9.39094 5.87608 9.31094 5.96908 9.30094C6.50208 9.22094 7.24608 9.14094 8.00908 9.14094C8.76608 9.14094 9.49808 9.23094 10.0211 9.30094C10.1121 9.32094 10.1811 9.40094 10.1851 9.49094L10.2111 10.0609C10.2561 11.0209 11.0481 11.7809 12.0111 11.7809H13.9641C14.4601 11.7809 14.9331 11.5709 15.2731 11.2109C15.6131 10.8509 15.7891 10.3609 15.7591 9.87094C15.7321 9.33094 15.6991 8.75094 15.6811 8.53094C15.5961 7.52094 14.3271 4.72094 7.97408 4.71094C4.35908 4.71094 2.42308 5.65094 1.42708 6.55094C0.600081 7.29094 0.345081 8.07094 0.315081 8.52094ZM1.91108 8.63094C1.92608 8.42094 2.10808 8.09094 2.49908 7.73094C3.32708 6.99094 4.96608 6.31094 7.97308 6.31094C10.5451 6.32094 12.1251 6.79094 13.0631 7.39094C13.7751 7.85094 14.0601 8.35094 14.0861 8.66094C14.1041 8.87094 14.1351 9.44094 14.1621 9.96094C14.1651 10.0209 14.1461 10.0709 14.1081 10.1109C14.0701 10.1509 14.0181 10.1809 13.9631 10.1809H12.0101C11.9031 10.1809 11.8151 10.0909 11.8101 9.99094L11.7831 9.42094C11.7441 8.57094 11.1171 7.86094 10.2781 7.73094C10.2741 7.72094 10.2701 7.72094 10.2661 7.72094C9.68208 7.64094 8.86008 7.54094 8.00908 7.54094C7.16008 7.54094 6.33208 7.63094 5.74108 7.71094C5.73908 7.71094 5.73808 7.71094 5.73608 7.71094C4.88808 7.84094 4.24708 8.54094 4.20408 9.40094C4.19308 9.59094 4.18308 9.79094 4.17508 9.99094C4.17008 10.0909 4.08208 10.1809 3.97508 10.1809H2.03608C1.98208 10.1809 1.92908 10.1509 1.89108 10.1109C1.85408 10.0709 1.83408 10.0209 1.83708 9.96094C1.86208 9.47094 1.89008 8.93094 1.91108 8.63094Z" />
</svg>