<svg width="25" height="24" viewBox="0 0 25 24" fill="currentColor" xmlns="http://www.w3.org/2000/svg">
<path fill-rule="evenodd" clip-rule="evenodd" d="M7.23282 3.02934C4.03682 3.16234 1.48682 5.79534 1.48682 9.02334C1.48682 10.8973 1.48682 13.0443 1.48682 14.9993C1.48682 18.8653 4.62082 21.9993 8.48682 21.9993C10.7298 21.9993 13.2778 21.9993 15.5218 21.9993C19.3878 21.9993 22.5218 18.8653 22.5218 14.9993C22.5218 13.0443 22.5218 10.8973 22.5218 9.02334C22.5218 5.82234 20.0148 3.20734 16.8568 3.03334C16.4468 1.86434 15.3338 1.02734 14.0258 1.02734H10.0618C9.26482 1.02734 8.50182 1.34434 7.93882 1.90734C7.61982 2.22734 7.37982 2.61134 7.23282 3.02934ZM15.0258 4.02434C15.0268 4.57534 15.4738 5.02134 16.0248 5.02234L16.0258 5.02334H16.5218C18.7308 5.02334 20.5218 6.81434 20.5218 9.02334V14.9993C20.5218 17.7603 18.2828 19.9993 15.5218 19.9993C13.2778 19.9993 10.7298 19.9993 8.48682 19.9993C5.72482 19.9993 3.48682 17.7603 3.48682 14.9993V9.02334C3.48682 6.81434 5.27682 5.02334 7.48682 5.02334H8.06182C8.61382 5.02334 9.06182 4.57634 9.06182 4.02534C9.06182 3.76034 9.16782 3.50734 9.35382 3.32034C9.54182 3.13234 9.79582 3.02734 10.0618 3.02734H14.0258C14.5768 3.02734 15.0248 3.47334 15.0258 4.02434ZM12.0178 6.87634C9.02782 6.87634 6.60082 9.30334 6.60082 12.2933C6.60082 15.2833 9.02782 17.7103 12.0178 17.7103C15.0078 17.7103 17.4348 15.2833 17.4348 12.2933C17.4348 9.30334 15.0078 6.87634 12.0178 6.87634ZM12.0178 8.87634C13.9038 8.87634 15.4348 10.4073 15.4348 12.2933C15.4348 14.1793 13.9038 15.7103 12.0178 15.7103C10.1318 15.7103 8.60082 14.1793 8.60082 12.2933C8.60082 10.4073 10.1318 8.87634 12.0178 8.87634Z"/>
</svg>
