<svg width="12" height="12" viewBox="0 0 12 12" xmlns="http://www.w3.org/2000/svg">
<path class="svg-fill" fill-rule="evenodd" clip-rule="evenodd" d="M7.41427 5.99984L9.72556 3.68855C9.90826 3.50595 10.0109 3.25815 10.0109 2.99985C10.0109 2.74155 9.90816 2.49375 9.72556 2.31115L9.72486 2.31045C9.53266 2.11825 9.27196 2.01025 9.00006 2.01025C8.72826 2.01025 8.46746 2.11815 8.27526 2.31045C7.71391 2.87176 6.88488 3.70079 6.00003 4.58563C5.11524 3.70079 4.28621 2.87176 3.72486 2.31045C3.53266 2.11815 3.27186 2.01025 3.00006 2.01025C2.72816 2.01025 2.46746 2.11825 2.27526 2.31045L2.27456 2.31115C2.09196 2.49375 1.98926 2.74155 1.98926 2.99985C1.98926 3.25815 2.09186 3.50595 2.27456 3.68855L4.58584 5.99984C3.69167 6.89403 2.85449 7.73122 2.29296 8.29275C1.90246 8.68325 1.90246 9.31645 2.29296 9.70695C2.68346 10.0975 3.31666 10.0975 3.70716 9.70695L6.00006 7.41405L8.29296 9.70695C8.68346 10.0975 9.31666 10.0975 9.70716 9.70695C10.0977 9.31645 10.0977 8.68325 9.70716 8.29275C9.14562 7.73122 8.30845 6.89403 7.41427 5.99984V5.99984Z" fill="white"/>
</svg>
