<svg viewBox="0 0 24 24" xmlns="http://www.w3.org/2000/svg">
<path class="svg-fill" fill-rule="evenodd" clip-rule="evenodd" d="M10.4078 11.9995L5.08684 17.3195C4.61884 17.7895 4.61884 18.5495 5.08684 19.0195C5.55584 19.4895 6.31584 19.4895 6.78384 19.0195L12.1048 13.6995L17.4258 19.0195C17.8938 19.4895 18.6538 19.4895 19.1228 19.0195C19.5908 18.5495 19.5908 17.7895 19.1228 17.3195L13.8018 11.9995L19.1228 6.67945C19.5908 6.20945 19.5908 5.44945 19.1228 4.97945C18.6538 4.50945 17.8938 4.50945 17.4258 4.97945L12.1048 10.2995L6.78384 4.97945C6.31584 4.50945 5.55584 4.50945 5.08684 4.97945C4.61884 5.44945 4.61884 6.20945 5.08684 6.67945L10.4078 11.9995Z" />
</svg>
