<svg width="16" height="16" viewBox="0 0 16 16" fill="currentColor" xmlns="http://www.w3.org/2000/svg">
    <path fill-rule="evenodd" clip-rule="evenodd" d="M12.7072 3.29291C13.0977 3.68341 13.0977 4.31661 12.7072 4.70711L9.41426 8.00001L12.7079 11.2936C13.098 11.6837 13.098 12.3163 12.7079 12.7064L12.7072 12.7071C12.3167 13.0976 11.6835 13.0976 11.293 12.7071L8.00006 9.41421L4.70716 12.7071C4.31666 13.0976 3.68346 13.0976 3.29296 12.7071L3.29226 12.7064C2.90216 12.3163 2.90216 11.6837 3.29226 11.2936L6.58586 8.00001L3.27456 4.68871C2.89416 4.30831 2.89416 3.69161 3.27456 3.31131L3.27526 3.31061C3.46746 3.11841 3.72816 3.01041 4.00006 3.01041C4.27186 3.01041 4.53266 3.11831 4.72486 3.31061L8.00006 6.58581L11.293 3.29291C11.6835 2.90241 12.3167 2.90241 12.7072 3.29291Z" />
</svg>
