<svg xmlns="http://www.w3.org/2000/svg" viewBox="0 0 16 16">
    <path class="svg-fill" fill-rule="evenodd" d="M1.23 4.99c0-.44.36-.8.8-.8H4.2V2a.8.8 0 0 1 1.6 0V4.2a1.6 1.6 0 0 1-1.6 1.6H2.03a.8.8 0 0 1-.8-.8zm9.76-3.77c.45 0 .8.36.8.8v2.17h2.18a.8.8 0 0 1 0 1.6h-2.18a1.6 1.6 0 0 1-1.6-1.6V2.02c0-.44.36-.8.8-.8zm2.98 9.58a.8.8 0 0 0 0-1.6h-2.18a1.6 1.6 0 0 0-1.6 1.6v2.18a.8.8 0 0 0 1.6 0V10.8h2.18zm-8.98 2.98a.8.8 0 0 1-.8-.8V10.8H2.02a.8.8 0 0 1 0-1.6h2.17a1.6 1.6 0 0 1 1.6 1.6v2.18a.8.8 0 0 1-.8.8z" clip-rule="evenodd"/>
</svg>