<svg viewBox="0 0 16 16" xmlns="http://www.w3.org/2000/svg">
<path d="M8 1c3.863 0 7 3.137 7 7s-3.137 7-7 7-7-3.137-7-7 3.137-7 7-7zm0 9.926a1.075 1.075 0 1 1-.001 2.15A1.075 1.075 0 0 1 8 10.925zm2.717-4.956c0-1.589-1.278-2.53-2.846-2.53-.818 0-1.514.267-2.028.72-.54.48-.777 1.116-.777 1.538 0 .266.067.454.21.597a.81.81 0 0 0 .588.227c.256 0 .46-.052.615-.208.094-.104.196-.279.243-.428.081-.253.176-.454.338-.616.216-.22.487-.311.831-.311.65 0 1.068.44 1.068 1.011 0 .357-.175.642-.392.902L7.56 8.092c-.265.298-.472.72-.472 1.117 0 .233.158.59.4.723.468.258.94.05 1.078-.133.247-.326.55-.903.755-1.218l.74-.976c.412-.52.656-.915.656-1.635z" fill-rule="evenodd" class="svg-fill"/>
</svg>