<svg width="16" height="16" viewBox="0 0 16 16" xmlns="http://www.w3.org/2000/svg">
    <path class="svg-fill" fill-rule="evenodd" clip-rule="evenodd"
        d="M8.00896 0.710938C3.97996 0.710938 0.709961 3.97694 0.709961 7.99994C0.709961 12.0229 3.97996 15.2889 8.00896 15.2889C12.037 15.2889 15.308 12.0229 15.308 7.99994C15.308 3.97694 12.037 0.710938 8.00896 0.710938ZM8.00896 2.31094C11.154 2.31094 13.708 4.85994 13.708 7.99994C13.708 11.1399 11.154 13.6889 8.00896 13.6889C4.86396 13.6889 2.30996 11.1399 2.30996 7.99994C2.30996 4.85994 4.86396 2.31094 8.00896 2.31094ZM7.10996 8.78294V10.5029H6.94396C6.64896 10.5029 6.40896 10.7419 6.40896 11.0379C6.40896 11.2749 6.40896 11.5539 6.40896 11.7909C6.40896 12.0869 6.64896 12.3259 6.94396 12.3259C7.52996 12.3259 8.46296 12.3259 9.04896 12.3259C9.34496 12.3259 9.58396 12.0869 9.58396 11.7909C9.58396 11.5539 9.58396 11.2749 9.58396 11.0379C9.58396 10.7419 9.34496 10.5029 9.04896 10.5029H8.86996V8.78294H9.04896C9.19096 8.78294 9.32696 8.72694 9.42696 8.62694C9.52796 8.52594 9.58396 8.38994 9.58396 8.24794C9.58396 7.99894 9.58396 7.70294 9.58396 7.45294C9.58396 7.31194 9.52796 7.17494 9.42696 7.07494C9.32696 6.97494 9.19096 6.91794 9.04896 6.91794C8.46296 6.91794 7.52996 6.91794 6.94396 6.91794C6.80196 6.91794 6.66596 6.97494 6.56596 7.07494C6.46496 7.17494 6.40896 7.31194 6.40896 7.45294C6.40896 7.70294 6.40896 7.99894 6.40896 8.24794C6.40896 8.38994 6.46496 8.52594 6.56596 8.62694C6.66596 8.72694 6.80196 8.78294 6.94396 8.78294H7.10996ZM8.00596 3.45494C8.72296 3.45494 9.30496 4.03694 9.30496 4.75394C9.30496 5.47094 8.72296 6.05294 8.00596 6.05294C7.28896 6.05294 6.70796 5.47094 6.70796 4.75394C6.70796 4.03694 7.28896 3.45494 8.00596 3.45494Z"
    />
</svg>    