<svg width="16" height="16" viewBox="0 0 16 16" xmlns="http://www.w3.org/2000/svg">
<path class="svg-fill" fill-rule="evenodd" clip-rule="evenodd" d="M2.51296 8.94872C1.96796 9.08172 1.48696 9.27572 1.11096 9.52572C0.436955 9.97272 0.0539551 10.5927 0.0539551 11.3687C0.0539551 12.2207 0.605955 12.9577 1.81696 13.4207C3.08795 13.9057 5.22696 14.1297 7.98696 14.1297C10.745 14.1327 12.887 13.9527 14.162 13.4797C15.373 13.0297 15.936 12.2957 15.936 11.3817C15.936 10.7557 15.671 10.2247 15.193 9.79772C14.77 9.42072 14.148 9.12672 13.422 8.93572C13.263 6.72072 12.961 4.83672 12.383 3.64072C11.827 2.49072 11.016 1.88672 9.95796 1.88672C9.35795 1.88672 8.93395 2.04072 8.55295 2.20372C8.35895 2.28672 8.19195 2.39172 7.96995 2.39172C7.74396 2.39172 7.56596 2.28572 7.36196 2.20072C6.97396 2.03872 6.54496 1.88672 5.96295 1.88672C4.90196 1.88672 4.09796 2.48672 3.54796 3.63672C2.97796 4.82772 2.68296 6.71072 2.51296 8.94872ZM12.627 10.3967C12.225 10.5127 11.742 10.6057 11.204 10.6717C9.37596 10.8987 6.87195 10.8527 5.07896 10.6807C4.39995 10.6147 3.81296 10.5167 3.37296 10.4097C2.83096 10.4897 2.34396 10.6277 1.99596 10.8587C1.80096 10.9877 1.65396 11.1447 1.65396 11.3687C1.65396 11.4727 1.72496 11.5487 1.81696 11.6227C1.96196 11.7397 2.15496 11.8367 2.38696 11.9257C3.53996 12.3647 5.48396 12.5297 7.98796 12.5297C7.98796 12.5297 7.98796 12.5297 7.98896 12.5297C10.495 12.5327 12.446 12.4097 13.605 11.9797C13.834 11.8947 14.024 11.8007 14.166 11.6837C14.268 11.5997 14.336 11.5057 14.336 11.3817C14.336 11.1597 14.175 11.0077 13.972 10.8737C13.626 10.6437 13.152 10.4937 12.627 10.3967ZM11.82 8.95672C11.683 7.02772 11.449 5.38472 10.942 4.33672C10.701 3.83672 10.418 3.48672 9.95796 3.48672C9.53396 3.48672 9.26496 3.64072 9.00396 3.75072C8.67696 3.88972 8.35596 3.99172 7.96996 3.99172C7.58996 3.99172 7.26296 3.89072 6.92996 3.75372C6.65896 3.64272 6.37996 3.48672 5.96296 3.48672C5.50596 3.48672 5.22796 3.83172 4.99096 4.32772C4.49396 5.36572 4.26496 6.99272 4.11796 8.92472C4.44296 8.98472 4.84796 9.05072 5.23295 9.08772C6.68496 9.22772 8.63296 9.28172 10.248 9.15872C10.836 9.11472 11.376 9.05172 11.82 8.95672Z"/>
</svg>    