<svg xmlns="http://www.w3.org/2000/svg" viewBox="0 0 16 16">
	<path class="svg-fill" fill-rule="evenodd" clip-rule="evenodd" d="M1.19995 9.50922C1.19995 10.7792 1.70595 11.9992 2.60595 12.8992C3.50595 13.7992 4.72695 14.3092 5.99995 14.3092C7.28695 14.3092 8.71295 14.3092 9.99995 14.3092C11.273 14.3092 12.494 13.7992 13.394 12.8992C14.294 11.9992 14.8 10.7792 14.8 9.50922V5.49922C14.8 3.39922 13.099 1.69922 11 1.69922C9.16795 1.69922 6.83195 1.69922 4.99995 1.69922C2.90095 1.69922 1.19995 3.39922 1.19995 5.49922V9.50922ZM13.147 5.01922L9.68495 8.33922C8.74095 9.23922 7.25395 9.24922 6.30195 8.34922L2.83995 5.08922C2.81295 5.21922 2.79995 5.35922 2.79995 5.49922V9.50922C2.79995 10.3592 3.13695 11.1692 3.73695 11.7692C4.33695 12.3692 5.15095 12.7092 5.99995 12.7092H9.99995C10.849 12.7092 11.663 12.3692 12.263 11.7692C12.863 11.1692 13.2 10.3592 13.2 9.50922V5.49922C13.2 5.32922 13.182 5.17922 13.147 5.01922ZM12.238 3.67922C11.885 3.43922 11.459 3.29922 11 3.29922H4.99995C4.52095 3.29922 4.07695 3.44922 3.71695 3.70922L7.39995 7.18922C7.73095 7.49922 8.24995 7.49922 8.57895 7.17922L12.238 3.67922Z" />
</svg>