<svg width="16" height="16" viewBox="0 0 16 16" xmlns="http://www.w3.org/2000/svg">
<path class="svg-fill" fill-rule="evenodd" clip-rule="evenodd" d="M1.19922 9.50922C1.19922 10.7792 1.70522 11.9992 2.60522 12.8992C3.50522 13.7992 4.72622 14.3092 5.99922 14.3092C7.28622 14.3092 8.71222 14.3092 9.99922 14.3092C11.2722 14.3092 12.4932 13.7992 13.3932 12.8992C14.2932 11.9992 14.7992 10.7792 14.7992 9.50922V5.49922C14.7992 3.39922 13.0982 1.69922 10.9992 1.69922C9.16722 1.69922 6.83122 1.69922 4.99922 1.69922C2.90022 1.69922 1.19922 3.39922 1.19922 5.49922V9.50922ZM13.1462 5.01922L9.68422 8.33922C8.74022 9.23922 7.25322 9.24922 6.30122 8.34922L2.83922 5.08922C2.81222 5.21922 2.79922 5.35922 2.79922 5.49922V9.50922C2.79922 10.3592 3.13622 11.1692 3.73622 11.7692C4.33622 12.3692 5.15022 12.7092 5.99922 12.7092H9.99922C10.8482 12.7092 11.6622 12.3692 12.2622 11.7692C12.8622 11.1692 13.1992 10.3592 13.1992 9.50922V5.49922C13.1992 5.32922 13.1812 5.17922 13.1462 5.01922ZM12.2372 3.67922C11.8842 3.43922 11.4582 3.29922 10.9992 3.29922H4.99922C4.52022 3.29922 4.07622 3.44922 3.71622 3.70922L7.39922 7.18922C7.73022 7.49922 8.24922 7.49922 8.57822 7.17922L12.2372 3.67922Z" />
</svg>
