<svg xmlns="http://www.w3.org/2000/svg" viewBox="0 0 16 16" fill-rule="evenodd">
    <path class="svg-fill" d="M4.51491 3.5493C4.81891 1.8293 6.27291 0.529297 7.99991 0.529297C9.94491 0.529297 11.5449 2.1793 11.5449 4.2193V7.1093C11.5449 8.0893 11.1809 8.9693 10.5889 9.6193L11.3769 10.4093C12.1309 9.6093 12.5919 8.5293 12.5919 7.3393C12.5919 6.8993 12.9509 6.5393 13.3919 6.5393C13.8339 6.5393 14.1919 6.8993 14.1919 7.3393C14.1919 8.9693 13.5519 10.4493 12.5079 11.5393L11.3769 10.4093L10.5889 9.6193L9.45591 8.4893C9.76091 8.1193 9.94491 7.6393 9.94491 7.1093V4.2193C9.94491 3.0793 9.08491 2.1293 7.99991 2.1293C6.91491 2.1293 6.05491 3.0793 6.05491 4.2193V5.0893L4.51491 3.5493Z"/>
    <path class="svg-fill" d="M8.79491 13.4193C9.65491 13.3193 10.4589 13.0293 11.1699 12.6093L9.98891 11.4293C9.38991 11.7093 8.71991 11.8693 8.01191 11.8693C5.48591 11.8693 3.43191 9.8393 3.43191 7.3393C3.43191 6.8993 3.07291 6.5393 2.63191 6.5393C2.18991 6.5393 1.83191 6.8993 1.83191 7.3393C1.83191 10.4493 4.16791 13.0193 7.19491 13.4193L7.19991 14.8593C7.20191 15.2993 7.56091 15.6493 8.00291 15.6493C8.44391 15.6493 8.80191 15.2893 8.79991 14.8493L8.79491 13.4193Z" />
    <path fill="#FF5555" d="M15.0819 15.3193C15.4139 14.9893 15.4139 14.4493 15.0819 14.1193L2.07991 1.11926C1.74791 0.779258 1.20891 0.779258 0.877906 1.11926C0.545906 1.44926 0.545906 1.98926 0.877906 2.31926L13.8799 15.3193C14.2119 15.6493 14.7499 15.6493 15.0819 15.3193Z"/>
</svg>
