<svg xmlns="http://www.w3.org/2000/svg" viewBox="0 0 24 24">
    <path class="svg-fill" fill-rule="evenodd" clip-rule="evenodd" d="M10.9998 19.9702L11.0078 21.9502C11.0098 22.5102 11.4598 22.9502 12.0108 22.9502C12.5628 22.9502 13.0098 22.5002 13.0078 21.9502L12.9998 19.9802C17.1458 19.5202 20.4488 16.2502 20.9478 12.1202C21.0138 11.5702 20.6228 11.0702 20.0748 11.0102C19.5268 10.9402 19.0288 11.3302 18.9618 11.8802C18.5438 15.3402 15.5898 18.0302 12.0138 18.0302C8.4508 18.0302 5.5068 15.3602 5.0698 11.9202C4.9998 11.3702 4.4988 10.9802 3.9518 11.0502C3.4038 11.1202 3.0158 11.6202 3.0858 12.1702C3.6048 16.2702 6.8848 19.5102 10.9998 19.9702ZM16.9968 10.6502V6.32023C16.9968 3.35023 14.7338 0.990234 11.9968 0.990234C9.2608 0.990234 6.9968 3.35023 6.9968 6.32023V10.6502C6.9968 13.6202 9.2608 15.9902 11.9968 15.9902C14.7338 15.9902 16.9968 13.6202 16.9968 10.6502ZM8.9968 6.32023C8.9968 4.50023 10.3188 2.99023 11.9968 2.99023C13.6758 2.99023 14.9968 4.50023 14.9968 6.32023V10.6502C14.9968 12.4702 13.6758 13.9902 11.9968 13.9902C10.3188 13.9902 8.9968 12.4702 8.9968 10.6502V6.32023Z" />
</svg>