<svg viewBox="0 0 16 16" xmlns="http://www.w3.org/2000/svg">
    <path  class="svg-fill" fill-rule="evenodd" clip-rule="evenodd" d="M7.19503 13.4193L7.20003 14.8593C7.20203 15.2993 7.56103 15.6493 8.00303 15.6493C8.44403 15.6493 8.80203 15.2893 8.80003 14.8493L8.79503 13.4193C11.838 13.0393 14.192 10.4593 14.192 7.3393C14.192 6.8993 13.834 6.5393 13.392 6.5393C12.951 6.5393 12.592 6.8993 12.592 7.3393C12.592 9.8393 10.538 11.8693 8.01203 11.8693C5.48603 11.8693 3.43203 9.8393 3.43203 7.3393C3.43203 6.8993 3.07303 6.5393 2.63203 6.5393C2.19003 6.5393 1.83203 6.8993 1.83203 7.3393C1.83203 10.4493 4.16803 13.0193 7.19503 13.4193ZM4.45503 4.2193V7.1093C4.45503 9.1593 6.05503 10.7993 8.00003 10.7993C9.94503 10.7993 11.545 9.1593 11.545 7.1093V4.2193C11.545 2.1793 9.94503 0.529297 8.00003 0.529297C6.05503 0.529297 4.45503 2.1793 4.45503 4.2193ZM9.94503 4.2193V7.1093C9.94503 8.2493 9.08503 9.1993 8.00003 9.1993C6.91503 9.1993 6.05503 8.2493 6.05503 7.1093V4.2193C6.05503 3.0793 6.91503 2.1293 8.00003 2.1293C9.08503 2.1293 9.94503 3.0793 9.94503 4.2193Z" />
</svg>