<svg width="16" height="16" viewBox="0 0 16 16" xmlns="http://www.w3.org/2000/svg">
<path class="svg-fill" d="M4.51503 3.5493C4.81903 1.8293 6.27303 0.529297 8.00003 0.529297C9.94503 0.529297 11.545 2.1793 11.545 4.2193V7.1093C11.545 8.0893 11.181 8.9693 10.589 9.6193L11.377 10.4093C12.131 9.6093 12.592 8.5293 12.592 7.3393C12.592 6.8993 12.951 6.5393 13.392 6.5393C13.834 6.5393 14.192 6.8993 14.192 7.3393C14.192 8.9693 13.552 10.4493 12.508 11.5393L11.377 10.4093L10.589 9.6193L9.45603 8.4893C9.76103 8.1193 9.94503 7.6393 9.94503 7.1093V4.2193C9.94503 3.0793 9.08503 2.1293 8.00003 2.1293C6.91503 2.1293 6.05503 3.0793 6.05503 4.2193V5.0893L4.51503 3.5493Z" />
<path class="svg-fill" d="M8.79503 13.4193C9.65503 13.3193 10.459 13.0293 11.17 12.6093L9.98903 11.4293C9.39003 11.7093 8.72003 11.8693 8.01203 11.8693C5.48603 11.8693 3.43203 9.8393 3.43203 7.3393C3.43203 6.8993 3.07303 6.5393 2.63203 6.5393C2.19003 6.5393 1.83203 6.8993 1.83203 7.3393C1.83203 10.4493 4.16803 13.0193 7.19503 13.4193L7.20003 14.8593C7.20203 15.2993 7.56103 15.6493 8.00303 15.6493C8.44403 15.6493 8.80203 15.2893 8.80003 14.8493L8.79503 13.4193Z" />
<path class="svg-fill" d="M15.0819 15.3193C15.4139 14.9893 15.4139 14.4493 15.0819 14.1193L2.07991 1.11926C1.74791 0.779258 1.20891 0.779258 0.877906 1.11926C0.545906 1.44926 0.545906 1.98926 0.877906 2.31926L13.8799 15.3193C14.2119 15.6493 14.7499 15.6493 15.0819 15.3193Z" />
</svg>
