<svg xmlns="http://www.w3.org/2000/svg" viewBox="0 0 12 12">
    <path class="svg-fill" fill-rule="evenodd" d="M8.788 2.812a2.786 2.786 0 1 0-5.574 0V5.12a2.786 2.786 0 0 0 5.574 0V2.812zm-1.4 0V5.12a1.386 1.386 0 1 1-2.774 0V2.812a1.386 1.386 0 0 1 2.774 0zm2.267 2.564c0 .154-.01.307-.03.458-.23 1.788-1.786 3.15-3.64 3.15-1.857 0-3.416-1.369-3.64-3.163a3.588 3.588 0 0 1-.028-.445.7.7 0 1 0-1.4 0c0 .208.013.415.038.62.284 2.267 2.09 4.038 4.34 4.342l-.012.918a.7.7 0 1 0 1.4.018l.013-.939c2.235-.311 4.028-2.069 4.318-4.323.027-.21.04-.422.04-.636a.7.7 0 1 0-1.4 0z" clip-rule="evenodd"/>
</svg>