<svg xmlns="http://www.w3.org/2000/svg" viewBox="0 0 24 24" fill-rule="evenodd" clip-rule="evenodd">
    <path class="svg-fill" d="M19.4324 16.0182C20.1919 14.878 20.698 13.5552 20.8702 12.13C20.9362 11.58 20.5452 11.08 19.9972 11.02C19.4492 10.95 18.9512 11.34 18.8842 11.89C18.7674 12.8566 18.4527 13.7631 17.9818 14.5676L19.4324 16.0182ZM16.4146 13.0004C16.7374 12.2953 16.9192 11.5017 16.9192 10.66V6.33C16.9192 3.36 14.6562 1 11.9192 1C9.95403 1 8.23239 2.21749 7.41825 4.00403L8.99546 5.58124C9.29945 4.11382 10.478 3 11.9192 3C13.5982 3 14.9192 4.51 14.9192 6.33V10.66C14.9192 10.9226 14.8917 11.1789 14.8396 11.4253L16.4146 13.0004ZM10.9222 19.98L10.9302 21.96C10.9322 22.52 11.3822 22.96 11.9332 22.96C12.4852 22.96 12.9322 22.51 12.9302 21.96L12.9222 19.99C14.1652 19.8521 15.3324 19.4616 16.3711 18.8711L14.8878 17.3878C13.9907 17.8062 12.9904 18.04 11.9362 18.04C8.37316 18.04 5.42916 15.37 4.99216 11.93C4.92216 11.38 4.42116 10.99 3.87416 11.06C3.32616 11.13 2.93816 11.63 3.00816 12.18C3.52716 16.28 6.80716 19.52 10.9222 19.98ZM11.4616 13.9616C10.2682 13.7594 9.32167 12.7779 9.02022 11.5202L6.91916 9.41916V10.66C6.91916 13.63 9.18316 16 11.9192 16C12.395 16 12.8566 15.9284 13.2944 15.7944L11.4616 13.9616Z" />
    <path fill="#FF5555" fill-rule="evenodd" clip-rule="evenodd" d="M3.29289 1.29289C3.68342 0.902369 4.31658 0.902369 4.70711 1.29289L22.7071 19.2929C23.0976 19.6834 23.0976 20.3166 22.7071 20.7071C22.3166 21.0976 21.6834 21.0976 21.2929 20.7071L3.29289 2.70711C2.90237 2.31658 2.90237 1.68342 3.29289 1.29289Z"/>
</svg>