<svg width="16" height="16" viewBox="0 0 16 16" xmlns="http://www.w3.org/2000/svg">
<path class="svg-fill" fill-rule="evenodd" clip-rule="evenodd" d="M6.55664 13.0098C6.55664 12.2088 7.20764 11.5578 8.00864 11.5578C8.81064 11.5578 9.46064 12.2088 9.46064 13.0098C9.46064 13.8108 8.81064 14.4618 8.00864 14.4618C7.20764 14.4618 6.55664 13.8108 6.55664 13.0098ZM6.55664 8.00378C6.55664 7.20178 7.20764 6.55178 8.00864 6.55178C8.81064 6.55178 9.46064 7.20178 9.46064 8.00378C9.46064 8.80478 8.81064 9.45578 8.00864 9.45578C7.20764 9.45578 6.55664 8.80478 6.55664 8.00378ZM6.55664 3.00278C6.55664 2.20178 7.20764 1.55078 8.00864 1.55078C8.81064 1.55078 9.46064 2.20178 9.46064 3.00278C9.46064 3.80478 8.81064 4.45478 8.00864 4.45478C7.20764 4.45478 6.55664 3.80478 6.55664 3.00278Z" />
</svg>
