<svg viewBox="0 0 12 12" xmlns="http://www.w3.org/2000/svg">
	<path d="M3.023.764C.163 2.415-.833 6.128.82 8.989c1.652 2.861 5.365 3.856 8.226 2.204 2.86-1.651 3.855-5.365 2.204-8.225C9.597.107 5.884-.888 3.023.764zM8.81 6.085a4.62 4.62 0 0 1-.926 1.163l1.782.422a.628.628 0 0 1 .467.808.733.733 0 0 1-.853.493l-1.776-.445-.517 1.72a.733.733 0 0 1-.853.492.628.628 0 0 1-.467-.809l.526-1.754a4.618 4.618 0 0 1-1.47.221.638.638 0 0 1-.645-.676.725.725 0 0 1 .729-.656 3.196 3.196 0 0 0 2.779-1.605.724.724 0 0 1 .933-.303.637.637 0 0 1 .286.903l.005.026zm-5.008-3.97a2.26 2.26 0 0 1 2.954.888 2.26 2.26 0 0 1-.824 3.073 2.26 2.26 0 0 1-3.073-.824l-.002-.003a2.329 2.329 0 0 1 .945-3.134zm1.588 2.75a.938.938 0 0 0 .298-1.25.938.938 0 0 0-1.275-.341.938.938 0 0 0-.342 1.275l.003.006a.964.964 0 0 0 1.316.31z" fill-rule="evenodd" class="svg-fill"/>
</svg>