<svg xmlns="http://www.w3.org/2000/svg" viewBox="0 0 16 16">
	<path class="svg-fill" fill-rule="evenodd" clip-rule="evenodd" d="M11.9179 14.9903C12.1979 14.8603 12.6899 14.6103 13.1339 14.3803C13.5729 14.1603 13.9019 13.7603 14.0429 13.2903C14.1839 12.8103 14.1239 12.3003 13.8769 11.8803C13.5759 11.3503 13.2019 10.7003 12.9089 10.2003C12.4289 9.36033 11.3769 9.05033 10.5219 9.50033L10.0069 9.76033C9.92395 9.80033 9.82095 9.78033 9.76195 9.71033C9.43095 9.29033 8.98895 8.68033 8.60795 8.02033C8.22895 7.36033 7.93795 6.69033 7.74495 6.20033C7.71295 6.11033 7.74595 6.01033 7.82495 5.96033L8.30395 5.65033C9.11395 5.13033 9.37295 4.07033 8.89095 3.24033L7.91295 1.55033C7.66495 1.12033 7.25095 0.810331 6.76795 0.690331C6.28595 0.580331 5.77795 0.670331 5.36395 0.940331C4.91395 1.24033 4.42095 1.56033 4.23995 1.68033C3.40795 2.26033 1.61995 4.76033 4.79295 10.2603C6.59795 13.3903 8.37695 14.6003 9.65195 15.0203C10.7109 15.3603 11.5149 15.1903 11.9179 14.9903ZM11.2139 13.5603C11.0229 13.6503 10.6459 13.6603 10.1459 13.4903C9.08395 13.1503 7.68095 12.0703 6.17895 9.46033C4.89395 7.24033 4.51295 5.63033 4.56895 4.52033C4.61095 3.67033 4.89695 3.17033 5.15295 3.00033C5.32695 2.88033 5.80095 2.57033 6.23895 2.28033C6.24095 2.28033 6.24295 2.28033 6.24495 2.28033C6.29095 2.25033 6.34695 2.24033 6.40095 2.25033C6.45395 2.26033 6.49995 2.30033 6.52795 2.35033L7.50595 4.04033C7.55895 4.13033 7.53095 4.25033 7.44095 4.31033L6.96195 4.61033C6.24595 5.07033 5.94895 5.97033 6.24795 6.76033C6.24995 6.77033 6.25095 6.77033 6.25295 6.77033C6.46895 7.32033 6.79595 8.08033 7.22195 8.82033C7.64595 9.56033 8.13695 10.2303 8.50495 10.7003C8.50595 10.7003 8.50695 10.7003 8.50795 10.7003C9.04095 11.3703 9.97295 11.5803 10.7359 11.1903C10.9049 11.1003 11.0849 11.0103 11.2579 10.9203C11.3529 10.8703 11.4699 10.9003 11.5229 11.0003L12.4909 12.6703C12.5189 12.7203 12.5249 12.7803 12.5099 12.8303C12.4939 12.8803 12.4569 12.9303 12.4079 12.9503H12.4069C11.9709 13.1803 11.4879 13.4203 11.2139 13.5603Z" />
</svg>