<svg xmlns="http://www.w3.org/2000/svg" viewBox="0 0 12 12">
	<path class="svg-fill" fill-rule="evenodd" d="M2.78 8C.8 4.56 1.13 1.61 2.76.72l.83-.5a1.4 1.4 0 011.93.5l.35.6.39.67a1.4 1.4 0 01-.44 1.86l-.74.5a13.48 13.48 0 001.97 3.38l.44-.21.36-.18a1.4 1.4 0 011.82.56l.39.67.37.64c.38.66.16 1.5-.5 1.9l-.87.52C7.51 12.6 4.75 11.4 2.78 8zm.65-6.04C2.6 2.4 2.36 4.48 4 7.29c1.62 2.8 3.56 3.63 4.34 3.16l.88-.53-.37-.64-.38-.67-.36.18-.73.35a1 1 0 01-1.22-.27 19.58 19.58 0 01-1.42-2.03c-.4-.68-.77-1.49-1.08-2.29a1 1 0 01.39-1.18l1-.67-.38-.67-.35-.6-.88.53z" clip-rule="evenodd"/>
</svg>