<svg width="16" height="16" viewBox="0 0 16 16" xmlns="http://www.w3.org/2000/svg">
<path class="svg-fill" fill-rule="evenodd" clip-rule="evenodd" d="M1.97972 8.08734C2.02582 11.3866 4.71852 14.0509 8.02862 14.0509C8.76692 14.0509 9.47442 13.9182 10.1287 13.6757C10.5428 13.5222 10.7543 13.0615 10.6009 12.6475C10.4474 12.2335 9.98672 12.0219 9.57272 12.1754C9.09172 12.3537 8.57142 12.4509 8.02862 12.4509C5.62592 12.4509 3.66542 10.5423 3.58192 8.15974L4.04752 8.62534C4.35982 8.93754 4.86672 8.93754 5.17892 8.62534C5.49112 8.31314 5.49112 7.80624 5.17892 7.49404L3.31032 5.62534C2.99792 5.31294 2.49132 5.31294 2.17892 5.62534L0.310322 7.49404C-0.00187813 7.80624 -0.00187813 8.31314 0.310322 8.62534C0.622522 8.93754 1.12952 8.93754 1.44172 8.62534L1.97972 8.08734ZM12.4704 7.90414L11.9596 7.39334C11.6474 7.08114 11.1405 7.08114 10.8283 7.39334C10.5161 7.70554 10.5161 8.21244 10.8283 8.52474L12.6969 10.3933C13.0093 10.7057 13.5158 10.7057 13.8283 10.3933L15.6969 8.52474C16.0091 8.21244 16.0091 7.70554 15.6969 7.39334C15.3847 7.08114 14.8777 7.08114 14.5655 7.39334L14.0704 7.88844C14.0122 4.60014 11.3243 1.94824 8.02192 1.94824C6.94132 1.94824 5.92652 2.23234 5.04812 2.72944C4.66382 2.94694 4.52832 3.43544 4.74582 3.81974C4.96332 4.20394 5.45182 4.33944 5.83612 4.12194C6.48172 3.75654 7.22772 3.54824 8.02192 3.54824C10.4464 3.54824 12.4207 5.49164 12.4704 7.90414Z" />
</svg>
