<svg width="16" height="16" viewBox="0 0 16 16" xmlns="http://www.w3.org/2000/svg">
<path class="svg-fill" fill-rule="evenodd" clip-rule="evenodd" d="M5.69822 2.20055C5.32722 2.55055 5.00622 2.92055 4.72722 3.29055C4.72322 3.30055 4.71922 3.30055 4.71622 3.31055C4.60222 3.47055 4.50322 3.63055 4.42022 3.80055H3.49922C3.04822 3.80055 2.61622 3.98055 2.29722 4.30055C1.97822 4.62055 1.79922 5.05055 1.79922 5.50055V8.50055C1.79922 8.95055 1.97822 9.38055 2.29722 9.70055C2.61622 10.0205 3.04822 10.2005 3.49922 10.2005H10.4992C10.9192 10.2005 11.3222 10.0405 11.6322 9.76055C12.2272 9.70055 12.8032 9.46055 13.2872 9.07055L13.7912 8.66055C13.7552 9.48055 13.4132 10.2505 12.8322 10.8305C12.2142 11.4505 11.3742 11.8005 10.4992 11.8005H7.79922V13.2005H9.65822C10.0992 13.2005 10.4582 13.5605 10.4582 14.0005C10.4582 14.4405 10.0992 14.8005 9.65822 14.8005H4.32422C3.88322 14.8005 3.52422 14.4405 3.52422 14.0005C3.52422 13.5605 3.88322 13.2005 4.32422 13.2005H6.19922V11.8005H3.49922C2.62422 11.8005 1.78422 11.4505 1.16622 10.8305C0.547219 10.2105 0.199219 9.38055 0.199219 8.50055V5.50055C0.199219 4.62055 0.547219 3.79055 1.16622 3.17055C1.78422 2.55055 2.62422 2.20055 3.49922 2.20055H5.69822ZM9.73822 2.08336C8.00122 2.48336 6.85022 3.41336 6.09622 4.43336C6.09522 4.43336 6.09422 4.44336 6.09322 4.44336C5.60422 5.11336 5.64822 6.03336 6.19722 6.66336C6.74422 7.28336 7.64822 7.45336 8.37822 7.06336C8.77022 6.85336 9.21922 6.68336 9.73822 6.56336V6.69336C9.73822 7.28336 10.0752 7.82336 10.6042 8.07336C11.1342 8.32336 11.7622 8.25336 12.2182 7.88336L15.3852 5.31336C15.7422 5.03336 15.9492 4.59336 15.9502 4.13336C15.9502 3.67336 15.7442 3.24336 15.3882 2.95336L12.2202 0.38336C11.7642 0.0133604 11.1362 -0.0666396 10.6062 0.18336C10.0762 0.44336 9.73822 0.97336 9.73822 1.56336V2.08336ZM11.3382 1.72336L14.3042 4.13336L11.3382 6.53336V5.61336C11.3382 5.38336 11.2412 5.16336 11.0712 5.01336C10.9012 4.86336 10.6742 4.79336 10.4482 4.81336C9.30422 4.94336 8.38922 5.25336 7.63822 5.64336C7.63422 5.64336 7.63022 5.64336 7.62622 5.65336C7.55022 5.69336 7.45622 5.67336 7.39922 5.60336C7.34422 5.54336 7.33822 5.45336 7.38622 5.38336C8.02622 4.51336 9.05322 3.76336 10.6482 3.53336C11.0442 3.48336 11.3382 3.14336 11.3382 2.74336V1.72336Z" />
</svg>
