<svg width="16" height="16" viewBox="0 0 16 16" xmlns="http://www.w3.org/2000/svg">
    <path class="svg-fill" fill-rule="evenodd" clip-rule="evenodd" d="M5.69895 2.20055C5.32795 2.55055 5.00695 2.92055 4.72795 3.29055C4.72395 3.30055 4.71995 3.30055 4.71695 3.31055C4.60295 3.47055 4.50395 3.63055 4.42095 3.80055H3.49995C3.04895 3.80055 2.61695 3.98055 2.29795 4.30055C1.97895 4.62055 1.79995 5.05055 1.79995 5.50055V8.50055C1.79995 8.95055 1.97895 9.38055 2.29795 9.70055C2.61695 10.0205 3.04895 10.2005 3.49995 10.2005H10.5C10.92 10.2005 11.323 10.0405 11.633 9.76055C12.228 9.70055 12.804 9.46055 13.288 9.07055L13.792 8.66055C13.756 9.48055 13.414 10.2505 12.833 10.8305C12.215 11.4505 11.375 11.8005 10.5 11.8005H7.79995V13.2005H9.65895C10.1 13.2005 10.459 13.5605 10.459 14.0005C10.459 14.4405 10.1 14.8005 9.65895 14.8005H4.32495C3.88395 14.8005 3.52495 14.4405 3.52495 14.0005C3.52495 13.5605 3.88395 13.2005 4.32495 13.2005H6.19995V11.8005H3.49995C2.62495 11.8005 1.78495 11.4505 1.16695 10.8305C0.547951 10.2105 0.199951 9.38055 0.199951 8.50055V5.50055C0.199951 4.62055 0.547951 3.79055 1.16695 3.17055C1.78495 2.55055 2.62495 2.20055 3.49995 2.20055H5.69895ZM9.73895 2.08336C8.00195 2.48336 6.85095 3.41336 6.09695 4.43336C6.09595 4.43336 6.09495 4.44336 6.09395 4.44336C5.60495 5.11336 5.64895 6.03336 6.19795 6.66336C6.74495 7.28336 7.64895 7.45336 8.37895 7.06336C8.77095 6.85336 9.21995 6.68336 9.73895 6.56336V6.69336C9.73895 7.28336 10.076 7.82336 10.605 8.07336C11.135 8.32336 11.763 8.25336 12.219 7.88336L15.386 5.31336C15.743 5.03336 15.95 4.59336 15.951 4.13336C15.951 3.67336 15.745 3.24336 15.389 2.95336L12.221 0.38336C11.765 0.0133604 11.137 -0.0666396 10.607 0.18336C10.077 0.44336 9.73895 0.97336 9.73895 1.56336V2.08336ZM11.339 1.72336L14.305 4.13336L11.339 6.53336V5.61336C11.339 5.38336 11.242 5.16336 11.072 5.01336C10.902 4.86336 10.675 4.79336 10.449 4.81336C9.30495 4.94336 8.38995 5.25336 7.63895 5.64336C7.63495 5.64336 7.63095 5.64336 7.62695 5.65336C7.55095 5.69336 7.45695 5.67336 7.39995 5.60336C7.34495 5.54336 7.33895 5.45336 7.38695 5.38336C8.02695 4.51336 9.05395 3.76336 10.649 3.53336C11.045 3.48336 11.339 3.14336 11.339 2.74336V1.72336Z" />
</svg>

