<svg xmlns="http://www.w3.org/2000/svg" viewBox="0 0 16 16">
    <path class="svg-fill" fill-rule="evenodd" d="M3.001 1.193h10.014a2.8 2.8 0 012.8 2.8v7.016a2.8 2.8 0 01-2.8 2.8H3a2.8 2.8 0 01-2.8-2.8V3.993a2.8 2.8 0 012.8-2.8zm10.014 1.6H3a1.2 1.2 0 00-1.2 1.2v7.016a1.2 1.2 0 001.2 1.2h10.014a1.2 1.2 0 001.2-1.2V3.993a1.2 1.2 0 00-1.2-1.2zM7.46 4.03a.8.8 0 011.042-.078l.09.078 2.234 2.235a.8.8 0 01-1.041 1.208l-.09-.077-.889-.889-.004 3.819a.8.8 0 01-1.594.098l-.006-.1.004-3.777-.851.851a.8.8 0 01-1.042.078l-.09-.078a.8.8 0 01-.077-1.041l.077-.09L7.46 4.03z" clip-rule="evenodd"/>
</svg>