<svg width="24" height="24" viewBox="0 0 24 24" xmlns="http://www.w3.org/2000/svg">
    <path class="svg-fill" fill-rule="evenodd" clip-rule="evenodd" d="M10.1807 3.00001C9.3331 3.59231 8.6273 4.27431 8.0424 5.00001H4.9999C3.8954 5.00001 3 5.89551 3 7.00001V14C3 15.1045 3.8954 16 5 16C5 16 17 16 17.0001 16C18.1046 16 19 15.1045 19 14V13.4334L19.3244 13.2072L21 11.8512V14C21 16.2091 19.2092 18 17 18H12V20H15C15.5519 20 16 20.4481 16 21C16 21.5519 15.5519 22 15 22H7C6.4481 22 6 21.5519 6 21C6 20.4481 6.4481 20 7 20H10V18H5C2.7908 18 1 16.2091 1 14V7.00001C1 4.79091 2.7908 3.00001 5 3.00001H10.1807ZM14.8084 3.15741C11.0525 3.97101 9.1176 6.41961 8.1803 8.64071C8.1801 8.64111 8.18 8.64151 8.1798 8.64181C7.8318 9.46921 8.0777 10.427 8.7811 10.9845C9.4845 11.542 10.4732 11.5625 11.1991 11.0348C12.1102 10.3842 13.2667 9.79121 14.8083 9.46501C14.8082 9.46501 14.8082 10.0977 14.8082 10.0977C14.8082 10.8685 15.2512 11.5707 15.9468 11.9027C16.6425 12.2347 17.4671 12.1373 18.0663 11.6524C19.5802 10.4273 21.784 8.64411 23.0334 7.63301C23.5021 7.25381 23.7747 6.68321 23.7754 6.08031C23.776 5.47731 23.5045 4.90631 23.0366 4.52611C21.7878 3.51141 19.584 1.72071 18.0694 0.490108C17.4706 0.00360814 16.6453 -0.0950919 15.9487 0.236408C15.252 0.568008 14.8082 1.27081 14.8082 2.04231L14.8084 3.15741ZM16.8082 2.04231L21.7754 6.07831L16.8082 10.0977V8.29271C16.8082 8.00801 16.6868 7.73681 16.4745 7.54711C16.2622 7.35731 15.9791 7.26711 15.6961 7.29901C13.1586 7.58511 11.3808 8.44741 10.03 9.41211L10.0234 9.41721C10.8174 7.53581 12.5315 5.46201 15.9464 4.98561C16.4405 4.91661 16.8082 4.49401 16.8082 3.99521V2.04231Z" />
</svg>
