<svg width="16" height="16" viewBox="0 0 16 16" xmlns="http://www.w3.org/2000/svg">
    <path class="svg-fill" fill-rule="evenodd" clip-rule="evenodd" d="M7.29095 2.20008C7.41595 2.62008 7.64695 3.02008 7.98095 3.36008L8.11295 3.49008L7.98095 3.62008L7.81995 3.80008H3.49995C3.04895 3.80008 2.61695 3.98008 2.29795 4.30008C1.97895 4.62008 1.79995 5.05008 1.79995 5.50008V8.50008C1.79995 8.95008 1.97895 9.38008 2.29795 9.70008C2.61695 10.0201 3.04895 10.2001 3.49995 10.2001H10.5C10.951 10.2001 11.383 10.0201 11.702 9.70008C12.021 9.38008 12.2 8.95008 12.2 8.50008V7.57008C12.654 8.00008 13.219 8.24008 13.8 8.30008V8.50008C13.8 9.38008 13.452 10.2101 12.833 10.8301C12.215 11.4501 11.375 11.8001 10.5 11.8001H7.79995V13.2001H9.65895C10.1 13.2001 10.459 13.5601 10.459 14.0001C10.459 14.4401 10.1 14.8001 9.65895 14.8001H4.32495C3.88395 14.8001 3.52495 14.4401 3.52495 14.0001C3.52495 13.5601 3.88395 13.2001 4.32495 13.2001H6.19995V11.8001H3.49995C2.62495 11.8001 1.78495 11.4501 1.16695 10.8301C0.547951 10.2101 0.199951 9.38008 0.199951 8.50008V5.50008C0.199951 4.62008 0.547951 3.79008 1.16695 3.17008C1.78495 2.55008 2.62495 2.20008 3.49995 2.20008H7.29095ZM12.002 2.22008L10.562 0.780078C10.211 0.430078 9.63995 0.430078 9.28895 0.780078C8.93795 1.13008 8.93795 1.70008 9.28895 2.05008L10.73 3.49008L9.28895 4.93008C8.93795 5.28008 8.93795 5.85008 9.28895 6.20008C9.63995 6.55008 10.211 6.55008 10.562 6.20008L12.002 4.76008L13.443 6.20008C13.794 6.55008 14.364 6.55008 14.716 6.20008C15.067 5.85008 15.067 5.28008 14.716 4.93008L13.275 3.49008L14.716 2.05008C15.067 1.70008 15.067 1.13008 14.716 0.780078C14.364 0.430078 13.794 0.430078 13.443 0.780078L12.002 2.22008Z" />
</svg>