<svg xmlns="http://www.w3.org/2000/svg" viewBox="0 0 16 16">
	<path class="svg-fill" fill-rule="evenodd" clip-rule="evenodd" d="M2.62403 10.4352C2.78803 10.7982 2.98803 11.1422 3.21803 11.4622L3.04203 12.0042C2.80903 12.7232 3.11003 13.5062 3.76403 13.8842C4.15603 14.1102 4.67703 14.4112 5.06803 14.6372C5.72303 15.0152 6.55203 14.8842 7.05703 14.3222L7.43803 13.9002C7.63303 13.9202 7.83103 13.9302 8.03103 13.9302C8.23203 13.9302 8.43003 13.9202 8.62503 13.9002L9.00503 14.3222C9.51103 14.8842 10.34 15.0152 10.994 14.6372C11.386 14.4112 11.907 14.1102 12.299 13.8842C12.953 13.5062 13.254 12.7232 13.021 12.0042L12.844 11.4622C13.075 11.1422 13.275 10.7982 13.439 10.4352L13.995 10.3172C14.733 10.1602 15.262 9.50819 15.262 8.75219C15.262 8.30019 15.262 7.69819 15.262 7.24619C15.262 6.49019 14.733 5.83819 13.995 5.68119L13.438 5.56319C13.275 5.20019 13.075 4.85619 12.844 4.53619L13.021 3.99419C13.254 3.27519 12.953 2.49219 12.299 2.11419C11.907 1.88819 11.386 1.58719 10.994 1.36119C10.34 0.983195 9.51103 1.11419 9.00503 1.67619L8.62503 2.09819C8.43003 2.07819 8.23203 2.06819 8.03103 2.06819C7.83103 2.06819 7.63303 2.07819 7.43803 2.09819L7.05703 1.67619C6.55203 1.11419 5.72303 0.983195 5.06803 1.36119C4.67703 1.58719 4.15603 1.88819 3.76403 2.11419C3.11003 2.49219 2.80903 3.27519 3.04203 3.99419L3.21803 4.53619C2.98803 4.85619 2.78803 5.20019 2.62403 5.56319L2.06803 5.68119C1.32903 5.83819 0.801025 6.49019 0.801025 7.24619C0.801025 7.69819 0.801025 8.30019 0.801025 8.75219C0.801025 9.50819 1.32903 10.1602 2.06803 10.3172L2.62403 10.4352ZM3.95803 9.46919C3.86403 9.2092 3.64203 9.01619 3.37203 8.95919L2.40103 8.75219V7.24619L3.37203 7.0392C3.64203 6.98219 3.86403 6.78919 3.95803 6.52919C4.13303 6.04319 4.39303 5.59719 4.72103 5.21019C4.90003 4.99919 4.95703 4.71019 4.87103 4.44619L4.56403 3.50019L5.86803 2.74619L6.53403 3.48519C6.71903 3.69119 6.99903 3.78719 7.27203 3.73619C7.51803 3.69119 7.77203 3.66819 8.03103 3.66819C8.29003 3.66819 8.54403 3.69119 8.79003 3.73619C9.06303 3.78719 9.34303 3.69119 9.52903 3.48519L10.194 2.74619L11.499 3.50019L11.191 4.44619C11.106 4.70919 11.163 4.99819 11.341 5.21019C11.669 5.59719 11.929 6.04219 12.105 6.52919C12.199 6.78919 12.421 6.98219 12.691 7.0392L13.662 7.24619V8.75219L12.691 8.95919C12.421 9.01619 12.199 9.2092 12.105 9.46919C11.929 9.95519 11.669 10.4012 11.342 10.7882C11.163 10.9992 11.106 11.2882 11.191 11.5522L11.499 12.4982L10.194 13.2522L9.52903 12.5132C9.34303 12.3072 9.06303 12.2112 8.79003 12.2622C8.54403 12.3072 8.29003 12.3302 8.03103 12.3302C7.77203 12.3302 7.51803 12.3072 7.27203 12.2622C6.99903 12.2112 6.71903 12.3072 6.53403 12.5132L5.86803 13.2522L4.56403 12.4982L4.87103 11.5522C4.95703 11.2892 4.90003 11.0002 4.72103 10.7882C4.39403 10.4012 4.13303 9.95619 3.95803 9.46919ZM8.01603 5.13719C6.44503 5.13719 5.16903 6.41319 5.16903 7.98419C5.16903 9.55519 6.44503 10.8302 8.01603 10.8302C9.58703 10.8302 10.863 9.55519 10.863 7.98419C10.863 6.41319 9.58703 5.13719 8.01603 5.13719ZM8.01603 6.7372C8.70403 6.7372 9.26303 7.2962 9.26303 7.98419C9.26303 8.67219 8.70403 9.2302 8.01603 9.2302C7.32803 9.2302 6.76903 8.67219 6.76903 7.98419C6.76903 7.2962 7.32803 6.7372 8.01603 6.7372Z" />
</svg>