<svg xmlns="http://www.w3.org/2000/svg" viewBox="0 0 32 32" fill-rule="evenodd" clip-rule="evenodd">
  <path class="svg-fill" d="M13.1059 4.39411L10.567 9.02518L5.37802 10.0088C4.18175 10.2356 3.20415 11.0964 2.82802 12.2544C2.45175 13.4122 2.73655 14.6833 3.57109 15.5698L7.19082 19.4157C7.19082 19.4156 6.52282 24.6546 6.52282 24.6546C6.36882 25.8624 6.88549 27.0581 7.87055 27.7737C8.85549 28.4893 10.1523 28.6112 11.2534 28.0914C11.2534 28.0916 16.0295 25.8373 16.0295 25.8373L20.8056 28.0916C21.9067 28.6112 23.2035 28.4893 24.1886 27.7737C25.1736 27.0581 25.6902 25.8624 25.5362 24.6546L24.8682 19.4156C24.8682 19.4157 28.488 15.5698 28.488 15.5698C29.3224 14.6833 29.6074 13.4122 29.2311 12.2544C28.8548 11.0964 27.8774 10.2356 26.6811 10.0088L21.4922 9.02518L18.9531 4.39411C18.3679 3.32651 17.2471 2.66278 16.0295 2.66278C14.812 2.66278 13.6912 3.32651 13.1059 4.39411ZM12.6027 10.8589L15.4442 5.67609C15.5614 5.46236 15.7858 5.32943 16.0295 5.32943C16.2732 5.32943 16.4976 5.46236 16.6148 5.67609L19.4564 10.8589C19.6479 11.2084 19.9858 11.4537 20.3772 11.528L26.1844 12.6288C26.4239 12.6742 26.6196 12.8465 26.695 13.0784C26.7703 13.3102 26.7132 13.5646 26.5462 13.7421L22.4951 18.0462C22.222 18.3364 22.093 18.7334 22.1434 19.1286L22.891 24.9918C22.9218 25.2337 22.8183 25.473 22.6211 25.6164C22.4239 25.7596 22.1643 25.784 21.9439 25.68L16.5986 23.1572C16.2383 22.987 15.8208 22.987 15.4604 23.1572L10.1152 25.68C9.89484 25.784 9.63511 25.7596 9.43791 25.6164C9.24071 25.473 9.13737 25.2337 9.16817 24.9918L9.91564 19.1286C9.96604 18.7334 9.83711 18.3364 9.56404 18.0462L5.51284 13.7421C5.34577 13.5646 5.28884 13.3102 5.36417 13.0784C5.43951 12.8465 5.63511 12.6742 5.87471 12.6288L11.6819 11.528C12.0734 11.4537 12.4111 11.2084 12.6027 10.8589Z" />
  <path class="svg-fill star-filled" d="M14.0749 3.80138L10.9391 9.52098L4.5306 10.7358C3.71727 10.8899 3.05274 11.4751 2.797 12.2623C2.54127 13.0495 2.73487 13.9137 3.3022 14.5163L7.77274 19.2661L6.9478 25.7365C6.84314 26.5575 7.19434 27.3703 7.86394 27.8568C8.53354 28.3434 9.41514 28.4262 10.1637 28.073L16.0625 25.2889L21.9613 28.073C22.7098 28.4262 23.5914 28.3434 24.261 27.8568C24.9306 27.3703 25.2818 26.5575 25.1771 25.7365L24.3522 19.2661L28.8227 14.5163C29.3901 13.9137 29.5838 13.0495 29.3279 12.2623C29.0722 11.4751 28.4077 10.8899 27.5945 10.7358L21.1858 9.52098L18.0501 3.80138C17.6521 3.07565 16.8902 2.62445 16.0625 2.62445C15.2347 2.62445 14.4729 3.07565 14.0749 3.80138Z" />
</svg>