<svg width="16" height="16" viewBox="0 0 16 16" xmlns="http://www.w3.org/2000/svg">
<path class="svg-fill" fill-rule="evenodd" clip-rule="evenodd" d="M3.65092 6.18064C3.65092 6.18064 3.18292 6.63064 2.57992 7.22064C1.73992 8.04064 1.26492 9.17064 1.26392 10.3406C1.26292 11.5206 1.73492 12.6406 2.57392 13.4606L2.57592 13.4706C4.27092 15.1306 6.98392 15.1306 8.68292 13.4706C9.31092 12.8606 9.81092 12.3706 9.81092 12.3706C10.1269 12.0606 10.1329 11.5506 9.82492 11.2406C9.51592 10.9206 9.00892 10.9206 8.69292 11.2306C8.69292 11.2306 8.19292 11.7106 7.56492 12.3306C6.48892 13.3806 4.76992 13.3806 3.69592 12.3206H3.69392C3.16292 11.8006 2.86292 11.0906 2.86392 10.3406C2.86492 9.60064 3.16592 8.89064 3.69792 8.37064L4.76892 7.32064C5.08492 7.01064 5.09092 6.50064 4.78192 6.19064C4.47392 5.87064 3.96692 5.87064 3.65092 6.18064ZM6.90692 10.1606C7.66192 9.42064 9.40092 7.71064 10.1559 6.97064C10.4709 6.66064 10.4759 6.15064 10.1669 5.84064C9.85792 5.52064 9.35092 5.52064 9.03592 5.83064C8.28092 6.57064 6.54192 8.27064 5.78592 9.01064C5.47092 9.32064 5.46592 9.83064 5.77492 10.1506C6.08392 10.4606 6.59092 10.4706 6.90692 10.1606ZM12.2829 9.84064C12.2829 9.84064 12.7619 9.37064 13.3739 8.77064C14.2089 7.96064 14.6799 6.84064 14.6809 5.67064C14.6819 4.50064 14.2129 3.39064 13.3799 2.57064C13.3789 2.57064 13.3779 2.57064 13.3779 2.57064C11.6949 0.920636 9.00192 0.910636 7.31492 2.56064C6.67592 3.18064 6.16392 3.68064 6.16392 3.68064C5.84892 3.99064 5.84292 4.50064 6.15092 4.82064C6.45992 5.13064 6.96592 5.14064 7.28192 4.83064C7.28192 4.83064 7.79392 4.33064 8.43292 3.70064C9.49692 2.67064 11.1959 2.67064 12.2579 3.71064C12.2579 3.71064 12.2589 3.71064 12.2599 3.71064C12.7859 4.23064 13.0819 4.93064 13.0809 5.67064C13.0809 6.41064 12.7829 7.11064 12.2559 7.63064C11.6439 8.23064 11.1649 8.69064 11.1649 8.69064C10.8489 9.00064 10.8429 9.51064 11.1509 9.82064C11.4599 10.1406 11.9669 10.1506 12.2829 9.84064Z" />
</svg>
