<svg xmlns="http://www.w3.org/2000/svg" viewBox="0 0 24 24">
  <path class="svg-fill" fill-rule="evenodd" d="M12.02 2c2.22 0 4.03 1.8 4.03 4A4.01 4.01 0 018 6c0-2.2 1.8-4 4.02-4zm0 2C10.91 4 10 4.9 10 6s.9 2 2.02 2 2.03-.9 2.03-2-.9-2-2.03-2zm6.48 18a2.5 2.5 0 002.5-2.5v-.72V17a1 1 0 00-.1-.43c-1.2-2.48-5.2-4.59-8.9-4.56-3.75.03-7.83 2.14-8.91 4.6A1 1 0 003 17v2.5A2.5 2.5 0 005.5 22h13zm-6.49-8c2.87-.02 6.02 1.58 7 3.25v2.25a.5.5 0 01-.5.5H5.5a.5.5 0 01-.5-.5v-.71-1.56c.87-1.6 4.09-3.2 7.01-3.23z" clip-rule="evenodd"/>
</svg>
