<svg width="16" height="16" viewBox="0 0 16 16" xmlns="http://www.w3.org/2000/svg">
  <path class="svg-fill" fill-rule="evenodd" clip-rule="evenodd" d="M6.14727 8.48937C3.82727 8.48937 1.94727 10.3694 1.94727 12.6894C1.94727 13.2494 2.16927 13.7894 2.56527 14.1794C2.96127 14.5794 3.49727 14.7994 4.05727 14.7994C6.07627 14.7994 9.92727 14.7994 11.9473 14.7994C12.5063 14.7994 13.0433 14.5794 13.4393 14.1794C13.8353 13.7894 14.0573 13.2494 14.0573 12.6894C14.0573 10.3694 12.1763 8.48937 9.85727 8.48937H6.14727ZM6.14727 10.0894H9.85727C11.2933 10.0894 12.4573 11.2494 12.4573 12.6894C12.4573 12.8294 12.4033 12.9494 12.3073 13.0494C12.2123 13.1494 12.0823 13.1994 11.9473 13.1994H4.05727C3.92227 13.1994 3.79227 13.1494 3.69627 13.0494C3.60127 12.9494 3.54727 12.8294 3.54727 12.6894C3.54727 11.2494 4.71127 10.0894 6.14727 10.0894ZM7.99427 1.60938C6.40127 1.60938 5.10827 2.89937 5.10827 4.49937C5.10827 6.08937 6.40127 7.38937 7.99427 7.38937C9.58627 7.38937 10.8803 6.08937 10.8803 4.49937C10.8803 2.89937 9.58627 1.60938 7.99427 1.60938ZM7.99427 3.20937C8.70427 3.20937 9.28027 3.78937 9.28027 4.49937C9.28027 5.20937 8.70427 5.78937 7.99427 5.78937C7.28327 5.78937 6.70827 5.20937 6.70827 4.49937C6.70827 3.78937 7.28327 3.20937 7.99427 3.20937Z" />
</svg>
