<svg xmlns="http://www.w3.org/2000/svg" viewBox="0 0 16 16" fill-rule="evenodd" clip-rule="evenodd">
	<path class="svg-fill" d="M11.777 10.457C11.777 10.681 11.75 10.899 11.698 11.108L10.178 9.58795L10.184 5.55395C10.185 5.23495 10.059 4.92995 9.83395 4.70395C9.60895 4.47895 9.30295 4.35195 8.98395 4.35195H5.43295C5.27695 4.35195 5.12395 4.36195 4.97395 4.38395L3.65295 3.06195C4.20795 2.86095 4.80795 2.75195 5.43295 2.75195H8.98395C9.72795 2.75195 10.441 3.04795 10.966 3.57395C11.491 4.09995 11.786 4.81295 11.784 5.55595V5.60995L13.27 4.38895C13.745 4.00295 14.471 3.96195 15.001 4.24695C15.509 4.51895 15.788 5.01795 15.801 5.64295V10.334C15.789 10.916 15.527 11.355 15.092 11.678C14.644 12.01 13.834 12.057 13.29 11.644L11.777 10.384V10.457ZM11.781 7.6828L11.78 8.3038L14.199 10.3198L14.1998 10.3141L14.2 10.3123C14.2003 10.3098 14.2005 10.3073 14.201 10.3048L14.2 5.6958L11.781 7.6828Z" />
	<path class="svg-fill" d="M0.182983 8.00178C0.182983 7.08678 0.416983 6.22578 0.829983 5.47778L2.03298 6.68078C1.86998 7.08978 1.78298 7.53578 1.78298 8.00178C1.78298 8.96978 2.16698 9.89878 2.85198 10.5828C3.53598 11.2678 4.46498 11.6518 5.43298 11.6518H7.00398L8.60398 13.2518H5.43298C4.04098 13.2518 2.70498 12.6988 1.72098 11.7148C0.735983 10.7298 0.182983 9.39478 0.182983 8.00178Z" />
	<path fill="#FF5555" d="M14.125 14.7368C13.793 15.0678 13.254 15.0678 12.923 14.7368L0.352027 2.16584C0.0200273 1.83384 0.0200273 1.29484 0.352027 0.963844C0.684027 0.631844 1.22203 0.631844 1.55403 0.963844L14.125 13.5338C14.456 13.8658 14.456 14.4048 14.125 14.7368Z"/>
</svg>