<svg xmlns="http://www.w3.org/2000/svg" viewBox="0 0 24 24" fill-rule="evenodd" clip-rule="evenodd">
	<path class="svg-fill" d="M16.8419 17.4277C16.9346 17.1388 16.9848 16.8307 16.9852 16.5107L16.9872 15.1907L19.5142 17.3207C19.5272 17.3407 19.5402 17.3507 19.5542 17.3607C20.2972 17.9207 21.4042 17.8607 22.0162 17.4107C22.6192 16.9607 22.9822 16.3507 22.9992 15.5507V8.4807C22.9812 7.6207 22.6032 6.9307 21.9062 6.5607C21.1782 6.1607 20.1822 6.2207 19.5282 6.7507L16.9972 8.8307L17.0002 7.4707C17.0012 6.6807 16.6852 5.9107 16.1222 5.3507C15.5602 4.7807 14.7962 4.4707 14.0002 4.4707H7.01115C6.08488 4.4707 5.20056 4.65046 4.39127 4.97705L5.98939 6.57518C6.31926 6.5067 6.66102 6.4707 7.01115 6.4707H13.9992C14.2652 6.4707 14.5202 6.5707 14.7072 6.7607C14.8952 6.9507 15.0002 7.2007 15.0002 7.4707L14.9867 15.5725L16.8419 17.4277ZM20.7742 15.7707C20.7722 15.7707 18.0432 13.4707 16.9922 12.5807L16.9932 11.4207L20.7902 8.3007C20.8362 8.2607 20.9062 8.2907 20.9572 8.3207H20.9632C21.0106 8.34332 21.0064 8.40003 21.0019 8.46085C21.0004 8.48071 20.9989 8.50101 20.9992 8.5207V15.5107C20.9952 15.6307 20.9372 15.7107 20.8562 15.7807C20.8362 15.7807 20.7992 15.7807 20.7742 15.7707ZM1.19584 7.57092L2.64984 9.03092C2.24384 9.74092 2.01284 10.5709 2.01084 11.4509L2.00784 12.5009C2.00484 13.8209 2.52984 15.1009 3.46784 16.0409C4.40584 16.9809 5.67984 17.5109 7.00784 17.5109H11.1328L13.1328 19.5109H7.00784C5.14784 19.5109 3.36484 18.7709 2.05184 17.4509C0.738838 16.1409 0.00283781 14.3509 0.00783781 12.4909L0.0108378 11.4509C0.0148378 10.0109 0.450838 8.68092 1.19584 7.57092Z"/>
	<path fill="#FF5555" d="M0.292893 2.29289C0.683417 1.90237 1.31658 1.90237 1.70711 2.29289L19.7071 20.2929C20.0976 20.6834 20.0976 21.3166 19.7071 21.7071C19.3166 22.0976 18.6834 22.0976 18.2929 21.7071L0.292893 3.70711C-0.0976311 3.31658 -0.0976311 2.68342 0.292893 2.29289Z"/>
</svg>