<svg xmlns="http://www.w3.org/2000/svg" viewBox="0 0 24 24">
  <path class="svg-fill" fill-rule="evenodd" d="M9.5 5c.83 0 1.5.67 1.5 1.5v3c0 .83-.67 1.5-1.5 1.5h-3A1.5 1.5 0 015 9.5v-3C5 5.67 5.67 5 6.5 5h3zm0 8c.83 0 1.5.67 1.5 1.5v3c0 .83-.67 1.5-1.5 1.5h-3A1.5 1.5 0 015 17.5v-3c0-.83.67-1.5 1.5-1.5h3zM19 6.5c0-.83-.67-1.5-1.5-1.5h-3c-.83 0-1.5.67-1.5 1.5v3c0 .83.67 1.5 1.5 1.5h3c.83 0 1.5-.67 1.5-1.5v-3zM17.5 13c.83 0 1.5.67 1.5 1.5v3c0 .83-.67 1.5-1.5 1.5h-3a1.5 1.5 0 01-1.5-1.5v-3c0-.83.67-1.5 1.5-1.5h3z" clip-rule="evenodd"/>
</svg>