<svg xmlns="http://www.w3.org/2000/svg" viewBox="0 0 16 16">
	<path class="svg-fill" fill-rule="evenodd" d="M7.3 3.45c0-1-.81-1.8-1.8-1.8h-2c-1 0-1.8.8-1.8 1.8v2c0 1 .8 1.8 1.8 1.8h2c.99 0 1.8-.8 1.8-1.8v-2zm-1.6 0v2a.2.2 0 01-.2.2h-2a.2.2 0 01-.2-.2v-2c0-.1.08-.2.2-.2h2c.1 0 .2.1.2.2zm1.6 7c0-1-.81-1.8-1.8-1.8h-2c-1 0-1.8.8-1.8 1.8v2c0 1 .8 1.8 1.8 1.8h2c.99 0 1.8-.8 1.8-1.8v-2zm-1.6 0v2a.2.2 0 01-.2.2h-2a.2.2 0 01-.2-.2v-2c0-.1.08-.2.2-.2h2c.1 0 .2.1.2.2zm6.8-8.8c.99 0 1.8.8 1.8 1.8v2c0 1-.81 1.8-1.8 1.8h-2c-1 0-1.8-.8-1.8-1.8v-2c0-1 .8-1.8 1.8-1.8h2zm.2 3.8v-2a.2.2 0 00-.2-.2h-2a.2.2 0 00-.2.2v2c0 .11.08.2.2.2h2a.2.2 0 00.2-.2zm1.6 5c0-1-.81-1.8-1.8-1.8h-2c-1 0-1.8.8-1.8 1.8v2c0 1 .8 1.8 1.8 1.8h2c.99 0 1.8-.8 1.8-1.8v-2zm-1.6 0v2a.2.2 0 01-.2.2h-2a.2.2 0 01-.2-.2v-2c0-.1.08-.2.2-.2h2c.1 0 .2.1.2.2z" clip-rule="evenodd"/>
</svg>