<svg xmlns="http://www.w3.org/2000/svg" viewBox="0 0 16 16" fill-rule="evenodd" clip-rule="evenodd">
	<path class="svg-fill" d="M8.24497 9.75922H7.73797C6.63797 9.75922 5.74597 10.6492 5.74597 11.7492V12.2492C5.74597 13.3492 6.63797 14.2392 7.73797 14.2392H8.24497C9.34497 14.2392 10.236 13.3492 10.236 12.2492V11.7492C10.236 10.6492 9.34497 9.75922 8.24497 9.75922ZM13.253 9.75922H12.745C11.646 9.75922 10.754 10.6492 10.754 11.7492V12.2492C10.754 13.3492 11.646 14.2392 12.745 14.2392H13.253C14.352 14.2392 15.244 13.3492 15.244 12.2492V11.7492C15.244 10.6492 14.352 9.75922 13.253 9.75922ZM3.23897 9.75922H2.73197C1.63197 9.75922 0.740967 10.6492 0.740967 11.7492V12.2492C0.740967 13.3492 1.63197 14.2392 2.73197 14.2392H3.23897C4.33897 14.2392 5.23097 13.3492 5.23097 12.2492V11.7492C5.23097 10.6492 4.33897 9.75922 3.23897 9.75922ZM7.73797 11.2592H8.24497C8.51597 11.2592 8.73597 11.4792 8.73597 11.7492V12.2492C8.73597 12.5192 8.51597 12.7392 8.24497 12.7392H7.73797C7.46597 12.7392 7.24697 12.5192 7.24597 12.2492V11.7492C7.24697 11.4792 7.46597 11.2592 7.73797 11.2592ZM12.745 11.2592H13.253C13.524 11.2592 13.744 11.4792 13.744 11.7492V12.2492C13.744 12.5192 13.524 12.7392 13.253 12.7392H12.745C12.474 12.7392 12.254 12.5192 12.254 12.2492V11.7492C12.254 11.4792 12.474 11.2592 12.745 11.2592ZM2.73197 11.2592H3.23897C3.51097 11.2592 3.72997 11.4792 3.73097 11.7492V12.2492C3.72997 12.5192 3.51097 12.7392 3.23897 12.7392H2.73197C2.46097 12.7392 2.24097 12.5192 2.24097 12.2492V11.7492C2.24097 11.4792 2.46097 11.2592 2.73197 11.2592ZM3.99997 1.19922C2.45397 1.19922 1.19997 2.44922 1.19997 3.99922V5.99922C1.19997 7.54922 2.45397 8.79922 3.99997 8.79922H12C13.546 8.79922 14.8 7.54922 14.8 5.99922V3.99922C14.8 2.44922 13.546 1.19922 12 1.19922H3.99997ZM3.99997 2.79922H12C12.663 2.79922 13.2 3.33922 13.2 3.99922V5.99922C13.2 6.65922 12.663 7.19922 12 7.19922H3.99997C3.33697 7.19922 2.79997 6.65922 2.79997 5.99922V3.99922C2.79997 3.33922 3.33697 2.79922 3.99997 2.79922Z"/>
</svg>